<svg width="82" height="73" viewBox="0 0 82 73" fill="none" xmlns="http://www.w3.org/2000/svg">
<rect width="81" height="73" transform="translate(0.5)" fill="#FDFDFD"/>
<path d="M66.4753 33.3413C65.894 33.3413 65.309 33.3812 64.7277 33.4502L57.3657 11.6593C57.0309 10.6681 56.0927 10 55.0331 10H46.6261C45.2722 10 44.1684 11.0892 44.1684 12.4253V12.9917C44.1684 14.3278 45.2722 15.417 46.6261 15.417H53.1787C53.8483 15.417 54.4296 15.8418 54.6283 16.4735L55.7542 20.086L33.3405 27.4562L32.5679 25.2924L35.9969 25.296C37.5091 25.296 38.7416 24.0797 38.7416 22.5875C38.7416 21.0953 37.5091 19.879 35.9969 19.879L24.1717 19.8754C22.6559 19.8754 21.4271 21.0917 21.4271 22.5839V24.3811C21.4271 25.8733 22.6596 27.0896 24.1717 27.0896H26.6662C27.2107 27.0896 27.7368 26.9335 28.1894 26.6357L28.8443 26.2037L30.0915 29.6964L24.2122 36.0791C21.6625 34.2928 18.664 33.3452 15.5256 33.3452C7.2401 33.3416 0.5 39.9929 0.5 48.169C0.5 56.3453 7.24019 62.9965 15.5256 62.9965C23.1709 62.9965 29.4916 57.4416 30.4222 50.013H30.86C31.8644 53.3605 35.0064 55.8148 38.7224 55.8148C39.2117 55.8148 39.6974 55.7604 40.172 55.6769L40.7938 57.5794H39.6312C38.6194 57.5794 37.7953 58.3926 37.7953 59.391C37.7953 60.3895 38.6194 61.2027 39.6312 61.2027H45.0911C46.1028 61.2027 46.927 60.3895 46.927 59.391C46.927 58.3926 46.1028 57.5794 45.0911 57.5794H43.7629L42.8026 54.7257C45.3486 53.2807 46.9233 50.6376 46.9233 47.7221C46.9233 46.1681 46.4708 44.7231 45.6981 43.4887L58.2881 28.2439L60.2895 34.6592C54.9032 37.0591 51.4375 42.3199 51.4375 48.1725C51.4375 56.3488 58.1777 63 66.4631 63C74.7596 63 81.5 56.3487 81.5 48.1688C81.5 39.9925 74.7607 33.3413 66.4753 33.3413ZM53.179 14.4911H46.6264C45.7913 14.4911 45.1106 13.8194 45.1106 12.9953V12.4289C45.1106 11.6047 45.7912 10.933 46.6264 10.933H55.0334C55.6882 10.933 56.2659 11.3433 56.4719 11.9569L68.2122 46.7062C68.4477 47.4069 68.1239 48.1876 67.4507 48.5179C67.0533 48.7139 66.586 48.7285 66.1776 48.5542C65.7656 48.3799 65.4565 48.0386 65.3241 47.6175L55.5305 16.2012C55.2104 15.1773 54.2643 14.4911 53.179 14.4911ZM63.7967 45.8786C63.4582 46.4341 63.2742 47.0658 63.2742 47.723C63.2742 49.7126 64.9151 51.3282 66.9276 51.3282C68.9438 51.3282 70.5847 49.709 70.5847 47.723C70.5847 46.3143 69.7311 45.0327 68.4435 44.4518L66.2212 37.8731C66.3058 37.8694 66.3905 37.8658 66.4751 37.8658C72.2367 37.8658 76.9204 42.4913 76.9204 48.1734C76.9204 53.859 72.2331 58.481 66.4751 58.481C60.7135 58.481 56.026 53.8555 56.026 48.1697C56.026 44.3357 58.2261 40.7922 61.6589 39.0241L63.7967 45.8786ZM69.1057 46.4123L68.9475 45.944C69.3816 46.4268 69.6428 47.0549 69.6428 47.7266C69.6428 49.2007 68.425 50.4024 66.9276 50.4024C65.4302 50.4024 64.2161 49.2007 64.2161 47.7266C64.2161 47.5923 64.2271 47.458 64.2455 47.3236L64.4221 47.8937C64.6355 48.5762 65.1396 49.1281 65.8055 49.4113C66.1146 49.542 66.4457 49.6073 66.7731 49.6073C67.1484 49.6073 67.5273 49.5202 67.8732 49.3495C68.9585 48.8122 69.4883 47.5488 69.1057 46.4123ZM38.7267 39.6266C38.3846 39.6266 38.0497 39.6556 37.7186 39.6956L34.7054 31.2724L56.0557 23.9784L41.986 40.2949C40.9853 39.8665 39.8856 39.6266 38.7267 39.6266ZM56.0298 20.9725L56.6 22.8061L34.3889 30.3942L33.6531 28.3356L56.0298 20.9725ZM27.6673 25.863C27.3693 26.0591 27.0235 26.1607 26.6666 26.1607H24.1721C23.1787 26.1607 22.3693 25.362 22.3693 24.3817V22.5845C22.3693 21.6042 23.1787 20.8054 24.1721 20.8054H35.9973C36.9907 20.8054 37.8001 21.6042 37.8001 22.5845C37.8001 23.5648 36.9907 24.3636 35.9973 24.3636H30.7728C30.2283 24.3636 29.7022 24.5197 29.2496 24.8174L27.6673 25.863ZM29.7718 25.5944C30.0698 25.3983 30.4157 25.2967 30.7725 25.2967H31.5709L36.7844 39.8667C36.1479 40.0192 35.5408 40.2443 34.9705 40.5347L29.6541 25.671L29.7718 25.5944ZM30.7394 45.9047H30.3715C29.9705 43.3233 28.8851 40.9053 27.2147 38.8685L31.6481 34.0542L34.1389 41.0142C32.4501 42.1433 31.214 43.8788 30.7394 45.9047ZM24.0764 42.2777C24.8491 43.3705 25.4009 44.6013 25.699 45.8974L20.7468 45.8902L24.0764 42.2777ZM26.6666 45.8974C26.3391 44.3399 25.6769 42.8586 24.7276 41.5697L26.5782 39.5619C28.0572 41.41 29.0323 43.5811 29.4185 45.9011L26.6666 45.8974ZM31.295 33.0599L16.5491 49.0678C16.3137 49.3219 15.9789 49.4454 15.6367 49.4272C15.2909 49.4018 14.9818 49.2239 14.7868 48.9371C14.4998 48.5159 14.544 47.9568 14.8898 47.5793L30.4457 30.693L31.295 33.0599ZM17.3252 43.5524C16.7513 43.3346 16.1479 43.2184 15.5261 43.2184C12.7593 43.2184 10.5077 45.4404 10.5077 48.1706C10.5077 50.9009 12.7593 53.1228 15.5261 53.1228C17.5791 53.1228 19.4076 51.8812 20.1692 50.0149H25.791C24.897 54.8692 20.5776 58.4744 15.5228 58.4744C9.76119 58.4744 5.07747 53.8489 5.07747 48.1668C5.07747 42.4812 9.76477 37.8592 15.5228 37.8592C17.5132 37.8592 19.4263 38.4147 21.0931 39.453L17.3252 43.5524ZM15.5261 52.1971C13.2781 52.1971 11.4496 50.3926 11.4496 48.1743C11.4496 45.956 13.2781 44.1516 15.5261 44.1516C15.905 44.1516 16.2693 44.2205 16.6225 44.3186L14.1943 46.9544C13.5541 47.6479 13.4768 48.6754 14.003 49.4523C14.3562 49.9751 14.9264 50.3055 15.5629 50.3527C15.6144 50.3563 15.6696 50.36 15.7211 50.36C16.1405 50.36 16.5415 50.2329 16.8801 50.0005C16.9168 50.0078 16.95 50.0223 16.9868 50.0223H19.1428C18.4548 51.3403 17.0676 52.1971 15.5261 52.1971ZM15.5261 62.0725C7.75935 62.0725 1.44234 55.8386 1.44234 48.1707C1.44234 40.5064 7.75944 34.2726 15.5261 34.2726C18.4289 34.2726 21.203 35.1404 23.5724 36.7705L21.7402 38.7601C19.8897 37.5693 17.752 36.9339 15.5261 36.9339C9.24571 36.9339 4.1389 41.9733 4.1389 48.171C4.1389 54.3685 9.24561 59.408 15.5261 59.408C21.0964 59.408 25.8461 55.3961 26.7475 50.0187H29.47C28.5503 56.9242 22.6529 62.0725 15.5261 62.0725ZM30.0694 49.089H30.0621C30.0584 49.089 30.0547 49.0926 30.0474 49.089H17.7993L19.8891 46.8198L30.5737 46.8343C30.5406 47.1248 30.5222 47.4225 30.5222 47.7239C30.5222 48.1886 30.57 48.646 30.6473 49.089L30.0694 49.089ZM40.3047 47.2809C40.2017 46.9759 39.9662 46.7363 39.6645 46.6201C39.3592 46.5076 39.0207 46.5366 38.7411 46.7L38.4504 46.8707C37.8765 47.2047 37.6189 47.8727 37.825 48.4972L39.028 52.1714C38.9287 52.1787 38.8293 52.1932 38.7263 52.1932C36.2282 52.1932 34.1936 50.1854 34.1936 47.7202C34.1936 45.255 36.2282 43.2472 38.7263 43.2472C41.2244 43.2472 43.2591 45.255 43.2591 47.7202C43.2591 49.0744 42.652 50.3234 41.6145 51.1693L40.3047 47.2809ZM45.9891 59.3963C45.9891 59.8828 45.588 60.2785 45.095 60.2785H39.6351C39.1421 60.2785 38.7411 59.8828 38.7411 59.3963C38.7411 58.9098 39.1421 58.514 39.6351 58.514H45.095C45.588 58.5104 45.9891 58.9098 45.9891 59.3963ZM41.7875 57.581L38.7191 48.2103C38.6529 48.0033 38.7375 47.7819 38.9288 47.6693L39.2158 47.5023C39.2636 47.4733 39.3078 47.4841 39.3298 47.4914C39.3519 47.4987 39.3924 47.5205 39.4108 47.5713L42.7772 57.5815L41.7875 57.581ZM42.5049 53.8232L41.9236 52.095C43.3511 51.0784 44.2011 49.4737 44.2011 47.7237C44.2011 44.7466 41.7434 42.3213 38.7265 42.3213C35.7096 42.3213 33.2519 44.7466 33.2519 47.7237C33.2519 50.7008 35.7096 53.1261 38.7265 53.1261C38.9251 53.1261 39.1238 53.1007 39.3262 53.0789L39.8854 54.7853C39.5028 54.847 39.1164 54.887 38.7264 54.887C34.7235 54.887 31.4638 51.6702 31.4638 47.7201C31.4638 43.7699 34.7235 40.5532 38.7264 40.5532C42.7294 40.5532 45.9891 43.7699 45.9891 47.7201C45.9891 50.2397 44.6572 52.5271 42.5049 53.8232ZM57.9205 27.2289L45.1469 42.6959C44.5104 41.908 43.7304 41.24 42.8474 40.7317L57.0526 24.2553L57.9688 27.1888C57.954 27.207 57.9352 27.2144 57.9205 27.2289ZM66.4745 62.0721C58.7078 62.0721 52.3908 55.8346 52.3908 48.174C52.3908 42.728 55.5916 37.8265 60.5806 35.5577L61.3826 38.1282C57.5526 40.0234 55.0913 43.9372 55.0913 48.1746C55.0913 54.3722 60.198 59.4116 66.4784 59.4116C72.7589 59.4116 77.8656 54.3722 77.8656 48.1746C77.8656 41.977 72.7589 36.9375 66.4784 36.9375C66.2871 36.9375 66.1031 36.9484 65.9155 36.9557L65.0362 34.3561C65.5145 34.3089 65.9964 34.2762 66.4784 34.2762C74.2414 34.2726 80.5583 40.5101 80.5583 48.1706C80.5583 55.8349 74.2411 62.0721 66.4745 62.0721Z" fill="#060606" stroke="#FDFDFD" stroke-width="0.5"/>
</svg>