<svg width="119" height="118" viewBox="0 0 119 118" fill="none" xmlns="http://www.w3.org/2000/svg">
<rect x="0.5" width="118" height="118" rx="59" fill="#FB512D"/>
<path d="M62.8512 26.1024C59.0802 26.754 56.5509 30.3505 57.2024 34.1164C57.8643 37.8719 61.4557 40.3909 65.2266 39.7393C68.9975 39.0877 71.5269 35.5015 70.8753 31.7357C70.2237 27.9801 66.6221 25.4509 62.8512 26.1024Z" fill="#FDFDFD"/>
<path d="M45.4997 67.8028L41.1285 75.7449H50.3634C49.9221 72.4614 48.1008 69.619 45.4997 67.8028ZM38.7736 65.6942C32.2886 65.6942 27.0606 70.8862 27.0606 77.3148C27.0606 83.7536 32.2886 88.9509 38.7736 88.9509C44.9199 88.9509 49.9222 84.277 50.425 78.3101H41.267C40.8719 79.3003 39.8919 79.9981 38.7736 79.9981C37.3062 79.9981 36.08 78.7873 36.08 77.3148C36.08 75.8475 37.3062 74.6315 38.7736 74.6315C38.789 74.6315 38.8044 74.6418 38.8197 74.6418L43.2525 66.5767C41.8724 66.0072 40.359 65.6942 38.7736 65.6942ZM80.2275 65.6942C78.5601 65.6942 76.9798 66.0379 75.5535 66.6536L80.3505 74.6417C81.7665 74.7033 82.926 75.8885 82.926 77.3199C82.926 78.7924 81.6947 80.0032 80.2273 80.0032C78.76 80.0032 77.5338 78.7924 77.5338 77.3199C77.5338 76.7504 77.7185 76.2066 78.0366 75.7756L73.3217 67.9259C70.4127 70.0397 68.5247 73.4565 68.5247 77.3198C68.5247 83.7585 73.7374 88.9558 80.2222 88.9558C86.707 88.9558 91.925 83.7587 91.925 77.3198C91.9301 70.8862 86.7123 65.6942 80.2275 65.6942ZM67.3447 60.3431H59.5361L62.2655 62.7595C63.0043 63.411 63.4147 64.3499 63.4147 65.3298V67.5257L67.3447 60.3431ZM57.3556 45.8496C57.1709 45.8239 56.9913 45.8803 56.8477 45.9932C56.5501 46.2344 56.5039 46.6704 56.7502 46.968L58.8691 49.5846L54.8161 55.3359C54.6108 55.6232 54.6621 56.0183 54.9238 56.2543L56.6476 57.7728H67.2268L66.1391 55.9618C65.9134 55.577 65.898 55.0793 66.1186 54.6843L67.4576 52.2421L63.0711 51.5495C62.4657 51.452 61.9167 51.1237 61.5268 50.6568L57.8123 46.0957C57.6994 45.9623 57.53 45.8752 57.3556 45.8496ZM56.1704 38.0974C57.0683 38.0974 57.9815 38.4206 58.5817 39.1697L64.6153 46.5884C64.723 46.7269 64.8718 46.809 65.0411 46.8398L75.2559 48.4508C76.6155 48.6714 77.5288 49.9386 77.3183 51.2932C77.0977 52.6528 75.8459 53.566 74.4811 53.3505L70.1561 52.6733L68.7194 55.2745L74.2296 64.4479C76.0509 63.6065 78.0826 63.1345 80.2272 63.1345C88.0871 63.1345 94.5 69.486 94.5 77.3154C94.5 85.1447 88.0869 91.5212 80.2272 91.5212C72.3621 91.5212 65.9596 85.144 65.9596 77.3154C65.9596 72.5338 68.3504 68.301 72.0034 65.7256L69.5561 61.6416L63.4148 72.8775V77.1153C63.4148 77.2282 63.4456 77.3411 63.4969 77.4488L65.1694 80.4194C65.5953 81.1735 65.6209 81.9534 65.4003 82.4972C65.1797 83.0461 64.7846 83.3694 64.0869 83.3796H58.5819C57.7764 83.3694 57.3403 83.1282 57.0324 82.7178C56.7143 82.3073 56.5245 81.6455 56.5245 80.8093V78.3056H53.005C52.4868 85.6731 46.2993 91.5173 38.7728 91.5173C30.9129 91.5173 24.5 85.14 24.5 77.3114C24.5 69.4823 30.9131 63.1305 38.7728 63.1305C40.8045 63.1305 42.7336 63.5563 44.4883 64.3156L47.0125 59.7187L48.9826 61.4682L46.7304 65.5623C50.1216 67.8352 52.4766 71.5136 52.9486 75.7464H56.5195V67.2041C56.5195 67.004 56.4426 66.8142 56.2938 66.6808L47.2487 58.6464C46.1456 57.6716 45.253 56.3069 44.8579 54.9319C44.4731 53.5569 44.5603 52.2128 45.3453 51.0994L53.6516 39.2582C54.1544 38.5245 55.1545 38.0974 56.1704 38.0974Z" fill="#FDFDFD"/>
</svg>