<svg width="118" height="118" viewBox="0 0 118 118" fill="none" xmlns="http://www.w3.org/2000/svg">
<rect width="118" height="118" rx="59" fill="#FB512D"/>
<path d="M59.243 40.2493C63.1716 40.2493 66.3672 37.0537 66.3672 33.1251C66.3672 29.1965 63.1716 26 59.243 26C55.3144 26 52.1188 29.1965 52.1188 33.1251C52.1188 37.0537 55.3144 40.2493 59.243 40.2493Z" fill="#FDFDFD"/>
<path d="M93.4528 54.149L94.3983 51.8847C94.5443 51.5351 94.5062 51.1358 94.2956 50.8198C94.0858 50.5046 93.7317 50.3153 93.3529 50.3153H73.9729C73.1337 50.3153 72.3468 50.5835 71.7032 51.0863L67.7278 54.1568V48.937L81.0201 34.9489L81.0308 34.9383C81.7654 34.139 82.078 33.0669 81.8885 31.9977C81.6974 30.9239 81.0317 30.0209 80.0606 29.5199C78.7089 28.8304 76.9526 29.157 75.9549 30.2458L63.6947 43.0973C63.3309 43.4965 62.829 43.7161 62.2793 43.7161H56.2068C55.6571 43.7161 55.1551 43.4965 54.7772 43.0814L42.5445 30.26C41.5087 29.1251 39.818 28.8215 38.4238 29.5217C37.2651 30.1192 36.5453 31.3 36.5453 32.6031C36.5453 33.4635 36.8676 34.2921 37.4659 34.9489L50.7583 48.937V54.1566L46.7881 51.0898C46.1393 50.5835 45.3523 50.3153 44.5131 50.3153H25.133C24.7541 50.3153 24.4001 50.5047 24.1903 50.8198C23.9796 51.1358 23.9416 51.5351 24.0876 51.8847L25.033 54.149L24.0814 56.5188C23.9416 56.8684 23.9841 57.2642 24.1947 57.5757C24.4054 57.8873 24.7568 58.0741 25.1331 58.0741H43.28C43.5827 58.0741 43.881 58.167 44.1209 58.337L50.5661 62.9055C50.6252 62.9476 50.693 62.9719 50.7582 63.0015V68.6727L48.0663 88.644C47.7955 90.6153 49.1082 92.4911 51.0565 92.916C51.3186 92.9727 51.5797 93.0001 51.855 93.0001C53.6343 93.0001 55.171 91.7953 55.5916 90.0683L59.3325 74.6505L61.0286 80.353C61.2392 81.3932 61.8766 82.3103 62.7769 82.8688C63.6842 83.4318 64.7509 83.5903 65.7609 83.3194L65.9955 83.261C66.7957 83.0466 67.4864 82.5904 67.9478 82.0079L76.9261 73.5483C78.4992 72.1656 78.7186 69.7923 77.4263 68.145C76.7597 67.2952 75.8019 66.7659 74.7273 66.6535C73.6474 66.542 72.6046 66.8632 71.7424 67.5874L67.9786 71.0902L67.7279 68.6868V63.0015C67.7932 62.9719 67.8611 62.9476 67.92 62.9055L74.3661 58.337C74.6051 58.167 74.9035 58.0741 75.2062 58.0741H93.353C93.7292 58.0741 94.0807 57.8873 94.2914 57.5757C94.5022 57.2642 94.5446 56.8684 94.4047 56.5188L93.4528 54.149ZM75.2059 55.808C74.426 55.808 73.6825 56.0435 73.0549 56.4887L66.9036 60.8484H51.5824L45.4319 56.4887C44.8033 56.0435 44.0598 55.808 43.28 55.808H26.8088L27.309 54.5625C27.4197 54.2863 27.4178 53.9783 27.3028 53.7038L26.8345 52.5813H44.5131C44.8424 52.5813 45.146 52.6831 45.3983 52.8796L50.9725 57.1853C51.1708 57.3384 51.4142 57.4216 51.6648 57.4216H66.8214C67.0719 57.4216 67.3153 57.3384 67.5136 57.1853L73.0932 52.8761C73.3402 52.6831 73.6437 52.5813 73.9731 52.5813H91.6516L91.1834 53.7038C91.0682 53.9782 91.0665 54.2863 91.1772 54.5625L91.6774 55.808H75.2059Z" fill="#FDFDFD"/>
</svg>
