<svg width="81" height="73" viewBox="0 0 81 73" fill="none" xmlns="http://www.w3.org/2000/svg">
<rect width="81" height="73" fill="#FDFDFD"/>
<path fill-rule="evenodd" clip-rule="evenodd" d="M10.8982 19.2054C10.8982 18.622 11.3651 18.1491 11.9465 18.1491H14.9242C15.5056 18.1491 15.9725 18.622 15.9725 19.2054C15.9725 19.7905 15.5056 20.2625 14.9242 20.2625H11.9465C11.3651 20.2625 10.8982 19.7905 10.8982 19.2054ZM18.4745 19.2054C18.4745 18.622 18.9414 18.1491 19.5228 18.1491H30.1912C30.7639 18.1491 31.2308 18.622 31.2308 19.2054C31.2308 19.7905 30.7639 20.2625 30.1912 20.2625H19.5228C18.9414 20.2625 18.4745 19.7905 18.4745 19.2054ZM10.026 25.894H7.04837C6.46695 25.894 6 25.4202 6 24.8368C6 24.2534 6.46695 23.7805 7.04837 23.7805H10.026C10.5987 23.7805 11.0744 24.2534 11.0744 24.8368C11.0744 25.4202 10.5987 25.894 10.026 25.894ZM13.5763 24.8368C13.5763 24.2534 14.0432 23.7805 14.6158 23.7805H25.2843C25.8657 23.7805 26.3326 24.2534 26.3326 24.8368C26.3326 25.4202 25.8657 25.894 25.2843 25.894H14.6158C14.0432 25.894 13.5763 25.4202 13.5763 24.8368ZM13.2944 55.2455C13.2944 55.8289 12.8275 56.3027 12.2548 56.3027H9.26838C8.69579 56.3027 8.22887 55.8289 8.22887 55.2455C8.22887 54.6604 8.69579 54.1883 9.26838 54.1883H12.2548C12.8275 54.1883 13.2944 54.6604 13.2944 55.2455ZM15.8051 55.2455C15.8051 54.6604 16.272 54.1883 16.8447 54.1883H27.5131C28.0945 54.1883 28.5615 54.6604 28.5615 55.2455C28.5615 55.8289 28.0945 56.3027 27.5131 56.3027H16.8447C16.272 56.3027 15.8051 55.8289 15.8051 55.2455ZM38.0582 65.9437C38.0582 66.5271 37.5913 67 37.0099 67H14.7304C14.1577 67 13.682 66.5271 13.682 65.9437C13.682 65.3604 14.1577 64.8866 14.7304 64.8866H37.0099C37.5913 64.8866 38.0582 65.3604 38.0582 65.9437ZM72.8121 61.8281C72.4245 63.6281 70.874 64.8866 69.0504 64.8866H57.3248C58.6639 59.3549 63.5621 57.0277 67.6937 56.0542L70.6714 57.4507C72.3276 58.2274 73.2086 60.0273 72.8121 61.8281ZM43.1854 63.556C43.9518 64.4385 44.9209 64.8866 46.0838 64.8866H55.1841C55.5541 63.1008 56.2501 61.4897 57.2543 60.0736H46.3657C46.0661 60.0736 45.7666 59.9373 45.5728 59.7004L37.5384 50.1199L34.0058 52.9601L43.1854 63.556ZM24.0421 36.3847L31.1867 29.2552L34.1996 32.6137C31.7681 37.8346 32.4553 43.1606 36.2346 48.4669L32.6227 51.3686L23.8659 41.2653C22.6414 39.8501 22.7207 37.7072 24.0421 36.3847ZM37.0451 23.4055L32.6755 27.7687L36.2258 31.7285C36.5165 32.0571 36.5782 32.5363 36.3756 32.9281C33.812 37.8988 34.4991 42.8257 38.4899 47.9878L46.8502 57.9601H59.1396C60.6549 56.593 62.5578 55.4949 64.813 54.6995L59.1308 52.0366C58.8841 51.9226 58.6991 51.7213 58.6022 51.471L56.9989 47.4587L52.3298 49.8296C52.18 49.9062 52.0215 49.9427 51.8629 49.9427C50.7753 49.9427 50.4096 48.4387 51.396 47.9397L56.2148 45.4913L55.3867 43.417L49.4755 46.4202C49.3257 46.4969 49.1671 46.5334 49.0086 46.5334C47.8971 46.5334 47.5603 45.0279 48.5328 44.5321L54.6115 41.4497L53.7834 39.3754L46.6124 43.0127C46.4626 43.0893 46.304 43.1258 46.1455 43.1258C45.0576 43.1258 44.6924 41.6215 45.6785 41.1228L52.9993 37.4071L52.2769 35.5885C49.0878 36.4711 46.3128 36.2529 44.0135 34.9401C40.8685 33.1481 38.6309 29.4609 37.0451 23.4055ZM49.7486 10.1245C52.2769 16.2235 56.9548 20.0978 63.6942 21.6706L52.321 33.3672C49.3962 34.3077 47.0088 34.2213 45.0354 33.0982C42.4718 31.6332 40.5161 28.3102 39.0978 22.97L49.7486 10.1245ZM71.5524 55.5332L60.3818 50.2945L54.1093 34.5446L66.5485 21.7481C67.1614 21.127 66.8047 20.0977 65.9671 19.9641C58.2499 18.728 53.3869 14.7246 51.0965 7.72425C50.8363 6.9437 49.8293 6.74144 49.2993 7.37782L38.3489 20.5858C37.9392 20.1952 37.3014 20.1807 36.8866 20.5921L22.5709 34.8804C20.4654 36.9867 20.3421 40.4032 22.2978 42.6574L41.6085 64.9498C42.7714 66.2919 44.3218 67 46.0838 67H69.0504C71.8607 67 74.2481 65.0611 74.856 62.2833C75.4639 59.5063 74.1072 56.7311 71.5524 55.5332Z" fill="black" stroke="#FDFDFD" stroke-width="1.5"/>
</svg>

