<svg width="118" height="118" viewBox="0 0 118 118" fill="none" xmlns="http://www.w3.org/2000/svg">
<rect width="118" height="118" rx="59" fill="#FB512D"/>
<path d="M67.5783 40.0264C71.4502 40.0264 74.5915 36.8851 74.5915 33.0132C74.5915 29.1413 71.4502 26 67.5783 26C63.7035 26 60.5651 29.1413 60.5651 33.0132C60.5651 36.8851 63.7035 40.0264 67.5783 40.0264Z" fill="#FDFDFD"/>
<path d="M48.8041 52.2406L52.8542 45.2245L48.4856 43.9738L44.0965 51.6999C43.1965 53.2837 41.2474 53.9003 39.6168 53.1697L39.3158 53.0148C37.6326 52.0593 37.0423 49.9174 37.9979 48.2342L43.2987 38.9094C44.3653 37.0334 46.5774 36.1305 48.6521 36.7266L60.9864 40.2624C63.2715 40.917 65.2206 42.419 66.4392 44.4587L71.8744 53.5732H79.9424C81.8797 53.5732 83.449 55.1424 83.449 57.0798C83.449 59.0172 81.8797 60.5864 79.9424 60.5864H70.5473C68.8992 60.5864 67.3738 59.7185 66.5322 58.3071L63.9724 54.0173L60.0216 60.861L64.8695 65.7089C64.7001 65.8843 64.5335 66.0654 64.3728 66.2524C63.1747 65.9193 61.9123 65.7411 60.6091 65.7411C58.9288 65.7411 57.3158 66.0362 55.8226 66.5797L50.3289 61.086C47.7983 58.9324 47.0859 55.2181 48.8041 52.2406Z" fill="#FDFDFD"/>
<path d="M47.9212 62.0122L50.4518 64.5457L46.3081 72.0437C45.2766 73.9109 43.1113 74.8431 41.0453 74.3083L28.6287 71.091C26.7527 70.6059 25.6277 68.6919 26.1127 66.8159C26.5686 65.0538 28.2927 63.9522 30.0547 64.2327L30.3849 64.3028L41.232 67.111L45.9133 58.4207C46.302 59.7269 46.9744 60.9573 47.9212 62.0122Z" fill="#FDFDFD"/>
<path d="M68.3535 71.0135C66.2905 69.1871 63.5787 68.0796 60.6094 68.0796C54.1544 68.0796 48.9207 73.3132 48.9207 79.7683C48.9207 86.2233 54.1544 91.4569 60.6094 91.4569C63.5784 91.4569 66.2902 90.3494 68.3535 88.5231C67.1992 87.0824 66.3226 85.4051 65.8083 83.5787C65.2443 83.3859 64.6482 83.2748 64.1164 83.2748C63.6956 83.2748 63.2426 83.4881 62.6232 83.7979L62.5706 83.8242C62.027 84.096 61.3345 84.4437 60.6098 84.4437C59.9026 84.4437 59.2832 84.1135 58.7864 83.8476L58.6782 83.792C58.123 83.4969 57.6555 83.2748 57.1032 83.2748C56.434 83.2748 55.908 83.3479 55.4287 83.5086C54.9466 83.6693 54.482 83.9265 53.9472 84.3268C53.69 84.5197 53.3218 84.4671 53.1289 84.2099C52.936 83.9528 52.9887 83.5846 53.2458 83.3917C53.8507 82.9388 54.4264 82.6085 55.0576 82.3982C55.6888 82.1878 56.3463 82.106 57.1031 82.106C57.9769 82.106 58.6782 82.4683 59.2275 82.7576L59.2334 82.7635C59.8236 83.0732 60.2035 83.2748 60.6097 83.2748C61.0305 83.2748 61.4834 83.0615 62.1029 82.7518L62.1555 82.7255C62.699 82.4537 63.3915 82.106 64.1163 82.106C64.5634 82.106 65.0368 82.1673 65.5102 82.2784C65.3699 81.5099 65.2939 80.7238 65.2852 79.9202C64.8877 79.8209 64.4874 79.7683 64.1163 79.7683C63.6955 79.7683 63.2425 79.9816 62.6231 80.2913L62.5705 80.3176C62.0269 80.5894 61.3344 80.9371 60.6097 80.9371C59.9025 80.9371 59.283 80.6069 58.7862 80.341L58.6781 80.2855C58.1229 79.9904 57.6554 79.7683 57.1031 79.7683C56.4339 79.7683 55.9079 79.8413 55.4286 80.002C54.9465 80.1628 54.4819 80.4199 53.9471 80.8203C53.6899 81.0131 53.3217 80.9605 53.1288 80.7034C52.9359 80.4462 52.9886 80.078 53.2457 79.8851C53.8506 79.4322 54.4263 79.102 55.0575 78.8916C55.6887 78.6813 56.3462 78.5994 57.103 78.5994C57.9768 78.5994 58.6781 78.9618 59.2274 79.2511L59.2332 79.2569C59.8235 79.5666 60.2034 79.7683 60.6096 79.7683C61.0303 79.7683 61.4833 79.555 62.1028 79.2452L62.1554 79.2189C62.6989 78.9471 63.3914 78.5994 64.1162 78.5994C64.5048 78.5994 64.9139 78.6462 65.323 78.7309C65.3786 77.9741 65.4925 77.2348 65.6649 76.5188C65.1419 76.3552 64.6042 76.2617 64.1162 76.2617C63.6954 76.2617 63.2424 76.475 62.623 76.7848L62.5704 76.8111C62.0268 77.0828 61.3343 77.4306 60.6096 77.4306C59.9024 77.4306 59.2829 77.1004 58.7861 76.8344L58.678 76.7789C58.1228 76.4838 57.6553 76.2617 57.1029 76.2617C56.4338 76.2617 55.9077 76.3347 55.4285 76.4955C54.9464 76.6562 54.4818 76.9133 53.947 77.3137C53.6898 77.5066 53.3216 77.454 53.1287 77.1968C52.9358 76.9397 52.9885 76.5715 53.2456 76.3786C53.8505 75.9256 54.4261 75.5954 55.0574 75.3851C55.6886 75.1747 56.3461 75.0928 57.1029 75.0928C57.9767 75.0928 58.678 75.4552 59.2273 75.7445L59.2331 75.7503C59.8234 76.0601 60.2033 76.2617 60.6094 76.2617C61.0302 76.2617 61.4832 76.0484 62.1027 75.7386L62.1553 75.7123C62.6988 75.4406 63.3913 75.0928 64.1161 75.0928C64.7122 75.0928 65.358 75.201 65.9804 75.3938C66.5093 73.7837 67.3191 72.3051 68.3535 71.0135Z" fill="#FDFDFD"/>
<path fill-rule="evenodd" clip-rule="evenodd" d="M79.3114 68.0796C85.7665 68.0796 91.0001 73.3132 91.0001 79.7683C91.0001 86.2233 85.7665 91.4569 79.3114 91.4569C72.8563 91.4569 67.6227 86.2233 67.6227 79.7683C67.6227 73.3132 72.8563 68.0796 79.3114 68.0796ZM79.3114 73.3395C79.3114 73.018 79.5744 72.755 79.8958 72.755H82.2336C82.555 72.755 82.818 73.018 82.818 73.3395C82.818 73.6609 82.555 73.9239 82.2336 73.9239H81.9501L85.109 81.2907C85.2347 81.5888 85.0973 81.9307 84.8022 82.0592C84.5041 82.1849 84.1622 82.0475 84.0337 81.7524L81.9735 76.9425L74.3761 82.0066C74.1073 82.1877 73.7449 82.1147 73.5667 81.8459C73.3855 81.577 73.4586 81.2147 73.7274 81.0364L77.3947 78.5906L76.258 76.2616H75.4544C75.133 76.2616 74.87 75.9986 74.87 75.6772C74.87 75.3557 75.133 75.0928 75.4544 75.0928H77.7921C78.1136 75.0928 78.3766 75.3557 78.3766 75.6772C78.3766 75.9986 78.1136 76.2616 77.7921 76.2616H77.5584L78.3766 77.936L81.5063 75.8496L80.6793 73.9239H79.8961C79.5747 73.9239 79.3114 73.6609 79.3114 73.3395ZM76.9678 81.685L78.0987 80.9311C78.1279 81.1239 78.1425 81.3197 78.1425 81.5213C78.1425 83.7802 76.3103 85.6124 74.0514 85.6124C71.7926 85.6124 69.9604 83.7802 69.9604 81.5213C69.9604 79.2625 71.7926 77.4303 74.0514 77.4303C74.6359 77.4303 75.1911 77.553 75.6937 77.7751L75.8953 78.1842L75.0245 78.7657C74.7206 78.6576 74.3933 78.5991 74.0514 78.5991C72.4384 78.5991 71.1293 79.9083 71.1293 81.5213C71.1293 83.1343 72.4384 84.4434 74.0514 84.4434C75.6118 84.4434 76.8861 83.222 76.9678 81.685ZM84.7261 77.4332L85.2609 78.681C86.5437 78.9908 87.4934 80.145 87.4934 81.5214C87.4934 83.1344 86.1843 84.4435 84.5713 84.4435C82.9583 84.4435 81.6492 83.1344 81.6492 81.5214C81.6492 80.9895 81.7923 80.4928 82.0378 80.0632L81.503 78.8154C80.866 79.5343 80.4803 80.484 80.4803 81.5214C80.4803 83.7802 82.3125 85.6124 84.5714 85.6124C86.8302 85.6124 88.6624 83.7803 88.6624 81.5214C88.6624 79.3151 86.9148 77.515 84.7261 77.4332Z" fill="#FDFDFD"/>
</svg>
