<svg width="81" height="74" viewBox="0 0 81 74" fill="none" xmlns="http://www.w3.org/2000/svg">
<rect width="81" height="73" transform="translate(0 0.43335)" fill="#FDFDFD"/>
<mask id="path-1-inside-1_51_1685" fill="white">
<path fill-rule="evenodd" clip-rule="evenodd" d="M39.3994 65.3223C39.568 65.9745 39.174 66.6399 38.5173 66.8097C37.4677 67.0781 36.6207 67.5256 35.778 68.2569C32.4368 71.1585 26.9974 71.1585 23.6561 68.2569L23.5496 68.1653C21.0967 66.0351 17.1061 66.0351 14.6553 68.1643C12.9015 69.6805 10.7976 70.4333 8.48577 70.4333C6.29139 70.4333 4.096 69.7082 2.42487 68.2569C1.84575 67.7539 1.37112 67.4494 0.733053 67.1697C0.112575 66.8971 -0.168694 66.1771 0.104328 65.5599C0.378363 64.9428 1.10329 64.663 1.7227 64.9346C2.5841 65.312 3.27801 65.7554 4.03805 66.4178C6.49099 68.5469 10.4827 68.5469 12.9335 66.4178C16.406 63.3833 21.799 63.3856 25.2704 66.4178C27.7233 68.5469 31.7118 68.5469 34.1648 66.4178C35.2961 65.4365 36.4832 64.8091 37.9041 64.445C38.5618 64.2752 39.2288 64.6692 39.3994 65.3223ZM17.8837 53.0256C17.8217 52.6389 17.5745 52.3046 17.2229 52.1287L14.3512 50.7021C14.0265 50.5406 13.6491 50.5292 13.3182 50.6712L9.19827 52.427C8.3193 52.8014 7.60781 52.57 7.05562 52.1205L13.6811 48.2766C13.8321 48.1882 13.9666 48.181 14.1269 48.2509C19.8258 50.6887 23.9333 54.4595 26.3355 59.4594C26.441 59.6847 26.6168 59.8698 26.8329 59.9932L30.7957 62.2458C28.802 62.4929 26.8719 61.9402 25.35 60.6114C22.0068 57.7118 16.5694 57.7118 13.2271 60.6114C12.1021 61.5892 10.8228 62.1324 9.31618 62.2654L17.5404 54.084C17.8196 53.8063 17.9468 53.4134 17.8837 53.0256ZM3.49722 63.2158C6.886 65.4519 11.7163 65.1639 14.7338 62.5441L14.8404 62.4505C17.2933 60.3234 21.2839 60.3224 23.7347 62.4505C25.4715 63.9674 27.6096 64.7196 29.9043 64.7196C32.0872 64.7196 34.2713 64.0027 35.9403 62.5647L36.7014 61.9712C37.235 61.5546 37.326 60.7873 36.9072 60.2576C36.4884 59.7268 35.718 59.6332 35.1844 60.0498L33.7904 61.136L28.3789 58.0595C25.6933 52.6841 21.226 48.6294 15.0968 46.0076C14.2148 45.6301 13.2737 45.6867 12.4443 46.1691L4.56754 50.7391C3.97075 51.0847 3.77793 51.8526 4.14563 52.4404C5.60992 54.7742 7.91701 55.63 10.1652 54.6713L13.7618 53.1377L14.6004 53.5553L6.23968 61.8714C5.75575 61.6976 5.28829 61.4682 4.85502 61.1812C4.29039 60.8089 3.52826 60.9622 3.15393 61.5227C2.77854 62.0854 2.93263 62.8434 3.49722 63.2158ZM31.869 48.6428C31.869 47.1504 30.6488 45.9366 29.1483 45.9366C27.6478 45.9366 26.4265 47.1504 26.4265 48.6428C26.4265 50.1353 27.6478 51.349 29.1483 51.349C30.6488 51.349 31.869 50.1353 31.869 48.6428ZM23.9726 48.6428C23.9726 51.4817 26.2942 53.7909 29.1483 53.7909C32.0014 53.7909 34.324 51.4817 34.324 48.6428C34.324 45.8039 32.0014 43.4948 29.1483 43.4948C26.2942 43.4948 23.9726 45.8039 23.9726 48.6428ZM75.8269 40.407L71.737 40.8596L68.5654 36.4439C68.1239 35.8304 67.2367 35.758 66.6999 36.2895L62.0681 40.8925C61.7961 41.163 61.6669 41.5436 61.7196 41.9221L62.5293 47.7798C62.547 47.9165 62.4502 48.0215 62.3142 48.0164L44.6868 47.4311L56.152 45.6311C57.3428 45.4439 58.0742 44.2449 57.6939 43.1091L56.7786 40.3792C56.7517 40.2969 56.7611 40.2455 56.8169 40.1807L63.4848 32.2215C63.9258 31.695 63.8418 30.9127 63.308 30.4873L59.7176 27.6309C59.548 27.4951 59.3432 27.4057 59.125 27.3769L55.2275 26.8215C54.1033 26.6624 53.5729 25.7245 53.546 24.8065H59.4001C61.4901 25.7795 63.4176 27.0724 65.2852 28.7532L70.1217 33.5659L72.1817 38.3488C72.3761 38.7972 72.8197 39.0883 73.3109 39.0883H78.2405C77.8858 39.9544 77.223 40.2537 75.8269 40.407ZM44.2442 60.0766C44.0445 60.2653 43.8081 60.2134 43.4583 60.2134L51.0931 50.088L54.6649 50.2053L44.2442 60.0766ZM80.6924 37.061C80.4597 36.7967 80.1247 36.6475 79.7731 36.6475H74.1196L72.2851 32.3881C72.223 32.2451 72.1341 32.1166 72.0245 32.0055L66.9998 27.0076C66.9842 26.9922 66.9698 26.9799 66.9553 26.9665C64.8199 25.0379 62.6028 23.568 60.1757 22.4747C60.0175 22.4026 59.8438 22.3656 59.669 22.3656H52.4902C51.9514 22.3656 51.4758 22.7133 51.3175 23.2265C50.4917 25.9007 51.9699 28.8263 54.8811 29.2386L58.4467 29.7447L60.7961 31.6167L54.9317 38.6172C54.3278 39.3383 54.153 40.2609 54.4509 41.1506L55.1758 43.3138L43.8275 45.0963C42.8265 45.2526 42.0374 45.9181 41.7169 46.8747C41.4526 47.6642 41.1196 48.3238 41.6693 49.1119C41.9702 49.5428 42.4459 49.8 42.9754 49.8175L48.0983 49.9882L40.538 60.0148C39.7224 61.0961 40.5082 62.6542 41.8658 62.6542H43.905C44.6744 62.6542 45.3807 62.3734 45.9381 61.8437L58.1044 50.3205L62.2325 50.4573C63.9456 50.4856 65.1829 49.0519 64.9605 47.4476L64.2346 42.1916L67.4103 39.0348L70.1579 42.8612C70.4165 43.2212 70.8518 43.4145 71.2913 43.3662L76.0969 42.8344C79.1816 42.494 80.5993 41.0992 80.9902 38.0217C81.0347 37.673 80.9261 37.3233 80.6924 37.061ZM73.3109 21.9501C71.8104 21.9501 70.5892 23.1649 70.5892 24.6573C70.5892 26.1498 71.8104 27.3635 73.3109 27.3635C74.8114 27.3635 76.0317 26.1498 76.0317 24.6573C76.0317 23.1649 74.8114 21.9501 73.3109 21.9501ZM73.3109 29.8054C76.1651 29.8054 78.4866 27.4951 78.4866 24.6573C78.4866 21.8184 76.1651 19.5093 73.3109 19.5093C70.4568 19.5093 68.1352 21.8184 68.1352 24.6573C68.1352 27.4951 70.4568 29.8054 73.3109 29.8054ZM38.1481 6.87414C39.6487 6.87414 40.8689 8.08789 40.8689 9.58035C40.8689 11.0729 39.6487 12.2876 38.1481 12.2876C36.6476 12.2876 35.4264 11.0729 35.4264 9.58035C35.4264 8.08789 36.6476 6.87414 38.1481 6.87414ZM38.1481 14.7284C41.0013 14.7284 43.3228 12.4192 43.3228 9.58035C43.3228 6.74251 41.0013 4.43335 38.1481 4.43335C35.294 4.43335 32.9724 6.74251 32.9724 9.58035C32.9724 12.4192 35.294 14.7284 38.1481 14.7284ZM17.3553 16.4749C17.6108 15.901 18.0585 15.4227 18.7265 15.0154C19.2488 14.7583 19.7876 14.5186 20.3315 14.3026C22.8047 13.3186 26.6637 12.915 29.7719 12.5036C30.169 12.4501 30.5092 12.6209 30.7036 12.9696L33.5743 18.1094C33.7915 18.4971 34.203 18.7358 34.6477 18.7358H39.3115C39.1264 19.07 38.9186 19.3612 38.6848 19.6132C37.7945 20.58 37.4936 20.58 36.0489 20.58H33.0831L30.5795 17.4686C30.3096 17.1291 29.8784 16.9604 29.4492 17.0222L24.4224 17.735C23.4678 17.8716 23.0357 19.0067 23.6634 19.7366L27.2776 23.9476C27.7078 24.4506 27.8763 25.0122 27.7895 25.6674L26.4968 35.4873C26.4348 35.9522 26.0491 36.2895 25.5775 36.2895H25.1804L25.7544 26.5921C25.8216 25.4452 25.3304 24.393 24.4079 23.7028L18.013 18.9343C16.9313 18.1258 16.7235 17.9057 17.3553 16.4749ZM16.5404 20.8876C14.768 19.5658 13.9107 18.202 15.1082 15.4937C15.5736 14.4435 16.3781 13.5702 17.5042 12.8996C17.7747 12.7261 19.0639 12.1774 19.4184 12.0366C22.192 10.9343 26.1514 10.5181 29.4471 10.0833C30.8349 9.89919 32.17 10.5668 32.8494 11.7826L35.3695 16.295H41.1098C41.9209 16.295 42.5082 17.0681 42.2908 17.844C41.8937 19.2645 41.3042 20.3846 40.4945 21.263C38.9496 22.9396 37.8534 23.0208 36.0489 23.0208H32.4947C32.1214 23.0208 31.7677 22.8521 31.535 22.5621L29.1028 19.537L26.9788 19.8395L29.1452 22.3626C30.0262 23.3911 30.3996 24.6429 30.2227 25.9832L28.9301 35.804C28.7109 37.4724 27.2693 38.7304 25.5775 38.7304H24.6396C23.5249 38.7304 22.6327 37.7907 22.6975 36.6835L23.3035 26.4491C23.3221 26.1159 23.2022 25.8566 22.9344 25.6561L16.5404 20.8876ZM12.8931 26.4069C9.21586 26.4069 6.22315 29.3836 6.22315 33.0403C6.22315 36.699 9.21586 39.6767 12.8931 39.6767C16.1526 39.6767 18.8703 37.3387 19.4484 34.2612H12.8931C12.2148 34.2612 11.6657 33.7161 11.6657 33.0403C11.6657 32.3665 12.2148 31.8204 12.8931 31.8204H19.4484C18.8703 28.7439 16.1526 26.4069 12.8931 26.4069ZM12.8931 42.1175C17.9251 42.1175 22.0191 38.0453 22.0191 33.0403C22.0191 28.0373 17.9251 23.9651 12.8931 23.9651C7.86116 23.9651 3.76819 28.0373 3.76819 33.0403C3.76819 38.0453 7.86116 42.1175 12.8931 42.1175ZM33.8535 35.7845C35.3757 39.1151 39.3395 40.5942 42.6869 39.0791C46.0423 37.5619 47.5242 33.6309 45.9991 30.2929C44.6718 27.3877 41.4256 25.8308 38.3312 26.5972L41.0447 32.5342C41.3239 33.1483 41.0519 33.8724 40.4335 34.1511C39.8264 34.4256 39.0927 34.1659 38.809 33.5453L36.0975 27.6093C33.5205 29.4042 32.5061 32.8345 33.8535 35.7845ZM48.4696 36.2258C50.2409 31.5318 47.85 26.3022 43.1305 24.5421C40.8482 23.6904 38.3705 23.7748 36.1513 24.7776C31.5712 26.8482 29.5371 32.24 31.6209 36.7956C33.73 41.41 39.1839 43.3466 43.7034 41.3018C45.9215 40.2979 47.6144 38.4959 48.4696 36.2258Z"/>
</mask>
<path fill-rule="evenodd" clip-rule="evenodd" d="M39.3994 65.3223C39.568 65.9745 39.174 66.6399 38.5173 66.8097C37.4677 67.0781 36.6207 67.5256 35.778 68.2569C32.4368 71.1585 26.9974 71.1585 23.6561 68.2569L23.5496 68.1653C21.0967 66.0351 17.1061 66.0351 14.6553 68.1643C12.9015 69.6805 10.7976 70.4333 8.48577 70.4333C6.29139 70.4333 4.096 69.7082 2.42487 68.2569C1.84575 67.7539 1.37112 67.4494 0.733053 67.1697C0.112575 66.8971 -0.168694 66.1771 0.104328 65.5599C0.378363 64.9428 1.10329 64.663 1.7227 64.9346C2.5841 65.312 3.27801 65.7554 4.03805 66.4178C6.49099 68.5469 10.4827 68.5469 12.9335 66.4178C16.406 63.3833 21.799 63.3856 25.2704 66.4178C27.7233 68.5469 31.7118 68.5469 34.1648 66.4178C35.2961 65.4365 36.4832 64.8091 37.9041 64.445C38.5618 64.2752 39.2288 64.6692 39.3994 65.3223ZM17.8837 53.0256C17.8217 52.6389 17.5745 52.3046 17.2229 52.1287L14.3512 50.7021C14.0265 50.5406 13.6491 50.5292 13.3182 50.6712L9.19827 52.427C8.3193 52.8014 7.60781 52.57 7.05562 52.1205L13.6811 48.2766C13.8321 48.1882 13.9666 48.181 14.1269 48.2509C19.8258 50.6887 23.9333 54.4595 26.3355 59.4594C26.441 59.6847 26.6168 59.8698 26.8329 59.9932L30.7957 62.2458C28.802 62.4929 26.8719 61.9402 25.35 60.6114C22.0068 57.7118 16.5694 57.7118 13.2271 60.6114C12.1021 61.5892 10.8228 62.1324 9.31618 62.2654L17.5404 54.084C17.8196 53.8063 17.9468 53.4134 17.8837 53.0256ZM3.49722 63.2158C6.886 65.4519 11.7163 65.1639 14.7338 62.5441L14.8404 62.4505C17.2933 60.3234 21.2839 60.3224 23.7347 62.4505C25.4715 63.9674 27.6096 64.7196 29.9043 64.7196C32.0872 64.7196 34.2713 64.0027 35.9403 62.5647L36.7014 61.9712C37.235 61.5546 37.326 60.7873 36.9072 60.2576C36.4884 59.7268 35.718 59.6332 35.1844 60.0498L33.7904 61.136L28.3789 58.0595C25.6933 52.6841 21.226 48.6294 15.0968 46.0076C14.2148 45.6301 13.2737 45.6867 12.4443 46.1691L4.56754 50.7391C3.97075 51.0847 3.77793 51.8526 4.14563 52.4404C5.60992 54.7742 7.91701 55.63 10.1652 54.6713L13.7618 53.1377L14.6004 53.5553L6.23968 61.8714C5.75575 61.6976 5.28829 61.4682 4.85502 61.1812C4.29039 60.8089 3.52826 60.9622 3.15393 61.5227C2.77854 62.0854 2.93263 62.8434 3.49722 63.2158ZM31.869 48.6428C31.869 47.1504 30.6488 45.9366 29.1483 45.9366C27.6478 45.9366 26.4265 47.1504 26.4265 48.6428C26.4265 50.1353 27.6478 51.349 29.1483 51.349C30.6488 51.349 31.869 50.1353 31.869 48.6428ZM23.9726 48.6428C23.9726 51.4817 26.2942 53.7909 29.1483 53.7909C32.0014 53.7909 34.324 51.4817 34.324 48.6428C34.324 45.8039 32.0014 43.4948 29.1483 43.4948C26.2942 43.4948 23.9726 45.8039 23.9726 48.6428ZM75.8269 40.407L71.737 40.8596L68.5654 36.4439C68.1239 35.8304 67.2367 35.758 66.6999 36.2895L62.0681 40.8925C61.7961 41.163 61.6669 41.5436 61.7196 41.9221L62.5293 47.7798C62.547 47.9165 62.4502 48.0215 62.3142 48.0164L44.6868 47.4311L56.152 45.6311C57.3428 45.4439 58.0742 44.2449 57.6939 43.1091L56.7786 40.3792C56.7517 40.2969 56.7611 40.2455 56.8169 40.1807L63.4848 32.2215C63.9258 31.695 63.8418 30.9127 63.308 30.4873L59.7176 27.6309C59.548 27.4951 59.3432 27.4057 59.125 27.3769L55.2275 26.8215C54.1033 26.6624 53.5729 25.7245 53.546 24.8065H59.4001C61.4901 25.7795 63.4176 27.0724 65.2852 28.7532L70.1217 33.5659L72.1817 38.3488C72.3761 38.7972 72.8197 39.0883 73.3109 39.0883H78.2405C77.8858 39.9544 77.223 40.2537 75.8269 40.407ZM44.2442 60.0766C44.0445 60.2653 43.8081 60.2134 43.4583 60.2134L51.0931 50.088L54.6649 50.2053L44.2442 60.0766ZM80.6924 37.061C80.4597 36.7967 80.1247 36.6475 79.7731 36.6475H74.1196L72.2851 32.3881C72.223 32.2451 72.1341 32.1166 72.0245 32.0055L66.9998 27.0076C66.9842 26.9922 66.9698 26.9799 66.9553 26.9665C64.8199 25.0379 62.6028 23.568 60.1757 22.4747C60.0175 22.4026 59.8438 22.3656 59.669 22.3656H52.4902C51.9514 22.3656 51.4758 22.7133 51.3175 23.2265C50.4917 25.9007 51.9699 28.8263 54.8811 29.2386L58.4467 29.7447L60.7961 31.6167L54.9317 38.6172C54.3278 39.3383 54.153 40.2609 54.4509 41.1506L55.1758 43.3138L43.8275 45.0963C42.8265 45.2526 42.0374 45.9181 41.7169 46.8747C41.4526 47.6642 41.1196 48.3238 41.6693 49.1119C41.9702 49.5428 42.4459 49.8 42.9754 49.8175L48.0983 49.9882L40.538 60.0148C39.7224 61.0961 40.5082 62.6542 41.8658 62.6542H43.905C44.6744 62.6542 45.3807 62.3734 45.9381 61.8437L58.1044 50.3205L62.2325 50.4573C63.9456 50.4856 65.1829 49.0519 64.9605 47.4476L64.2346 42.1916L67.4103 39.0348L70.1579 42.8612C70.4165 43.2212 70.8518 43.4145 71.2913 43.3662L76.0969 42.8344C79.1816 42.494 80.5993 41.0992 80.9902 38.0217C81.0347 37.673 80.9261 37.3233 80.6924 37.061ZM73.3109 21.9501C71.8104 21.9501 70.5892 23.1649 70.5892 24.6573C70.5892 26.1498 71.8104 27.3635 73.3109 27.3635C74.8114 27.3635 76.0317 26.1498 76.0317 24.6573C76.0317 23.1649 74.8114 21.9501 73.3109 21.9501ZM73.3109 29.8054C76.1651 29.8054 78.4866 27.4951 78.4866 24.6573C78.4866 21.8184 76.1651 19.5093 73.3109 19.5093C70.4568 19.5093 68.1352 21.8184 68.1352 24.6573C68.1352 27.4951 70.4568 29.8054 73.3109 29.8054ZM38.1481 6.87414C39.6487 6.87414 40.8689 8.08789 40.8689 9.58035C40.8689 11.0729 39.6487 12.2876 38.1481 12.2876C36.6476 12.2876 35.4264 11.0729 35.4264 9.58035C35.4264 8.08789 36.6476 6.87414 38.1481 6.87414ZM38.1481 14.7284C41.0013 14.7284 43.3228 12.4192 43.3228 9.58035C43.3228 6.74251 41.0013 4.43335 38.1481 4.43335C35.294 4.43335 32.9724 6.74251 32.9724 9.58035C32.9724 12.4192 35.294 14.7284 38.1481 14.7284ZM17.3553 16.4749C17.6108 15.901 18.0585 15.4227 18.7265 15.0154C19.2488 14.7583 19.7876 14.5186 20.3315 14.3026C22.8047 13.3186 26.6637 12.915 29.7719 12.5036C30.169 12.4501 30.5092 12.6209 30.7036 12.9696L33.5743 18.1094C33.7915 18.4971 34.203 18.7358 34.6477 18.7358H39.3115C39.1264 19.07 38.9186 19.3612 38.6848 19.6132C37.7945 20.58 37.4936 20.58 36.0489 20.58H33.0831L30.5795 17.4686C30.3096 17.1291 29.8784 16.9604 29.4492 17.0222L24.4224 17.735C23.4678 17.8716 23.0357 19.0067 23.6634 19.7366L27.2776 23.9476C27.7078 24.4506 27.8763 25.0122 27.7895 25.6674L26.4968 35.4873C26.4348 35.9522 26.0491 36.2895 25.5775 36.2895H25.1804L25.7544 26.5921C25.8216 25.4452 25.3304 24.393 24.4079 23.7028L18.013 18.9343C16.9313 18.1258 16.7235 17.9057 17.3553 16.4749ZM16.5404 20.8876C14.768 19.5658 13.9107 18.202 15.1082 15.4937C15.5736 14.4435 16.3781 13.5702 17.5042 12.8996C17.7747 12.7261 19.0639 12.1774 19.4184 12.0366C22.192 10.9343 26.1514 10.5181 29.4471 10.0833C30.8349 9.89919 32.17 10.5668 32.8494 11.7826L35.3695 16.295H41.1098C41.9209 16.295 42.5082 17.0681 42.2908 17.844C41.8937 19.2645 41.3042 20.3846 40.4945 21.263C38.9496 22.9396 37.8534 23.0208 36.0489 23.0208H32.4947C32.1214 23.0208 31.7677 22.8521 31.535 22.5621L29.1028 19.537L26.9788 19.8395L29.1452 22.3626C30.0262 23.3911 30.3996 24.6429 30.2227 25.9832L28.9301 35.804C28.7109 37.4724 27.2693 38.7304 25.5775 38.7304H24.6396C23.5249 38.7304 22.6327 37.7907 22.6975 36.6835L23.3035 26.4491C23.3221 26.1159 23.2022 25.8566 22.9344 25.6561L16.5404 20.8876ZM12.8931 26.4069C9.21586 26.4069 6.22315 29.3836 6.22315 33.0403C6.22315 36.699 9.21586 39.6767 12.8931 39.6767C16.1526 39.6767 18.8703 37.3387 19.4484 34.2612H12.8931C12.2148 34.2612 11.6657 33.7161 11.6657 33.0403C11.6657 32.3665 12.2148 31.8204 12.8931 31.8204H19.4484C18.8703 28.7439 16.1526 26.4069 12.8931 26.4069ZM12.8931 42.1175C17.9251 42.1175 22.0191 38.0453 22.0191 33.0403C22.0191 28.0373 17.9251 23.9651 12.8931 23.9651C7.86116 23.9651 3.76819 28.0373 3.76819 33.0403C3.76819 38.0453 7.86116 42.1175 12.8931 42.1175ZM33.8535 35.7845C35.3757 39.1151 39.3395 40.5942 42.6869 39.0791C46.0423 37.5619 47.5242 33.6309 45.9991 30.2929C44.6718 27.3877 41.4256 25.8308 38.3312 26.5972L41.0447 32.5342C41.3239 33.1483 41.0519 33.8724 40.4335 34.1511C39.8264 34.4256 39.0927 34.1659 38.809 33.5453L36.0975 27.6093C33.5205 29.4042 32.5061 32.8345 33.8535 35.7845ZM48.4696 36.2258C50.2409 31.5318 47.85 26.3022 43.1305 24.5421C40.8482 23.6904 38.3705 23.7748 36.1513 24.7776C31.5712 26.8482 29.5371 32.24 31.6209 36.7956C33.73 41.41 39.1839 43.3466 43.7034 41.3018C45.9215 40.2979 47.6144 38.4959 48.4696 36.2258Z" fill="#060606" stroke="#FDFDFD" stroke-width="2" mask="url(#path-1-inside-1_51_1685)"/>
</svg>

